<svg width="22" height="24" viewBox="0 0 22 24" fill="none" xmlns="http://www.w3.org/2000/svg">
<path d="M11.5196 23C11.7986 23 12.0662 22.8892 12.2635 22.6919C12.4608 22.4946 12.5716 22.227 12.5716 21.948C12.5716 21.669 12.4608 21.4015 12.2635 21.2042C12.0662 21.0069 11.7986 20.8961 11.5196 20.8961C11.2406 20.8961 10.9731 21.0069 10.7758 21.2042C10.5785 21.4015 10.4677 21.669 10.4677 21.948C10.4677 22.227 10.5785 22.4946 10.7758 22.6919C10.9731 22.8892 11.2406 23 11.5196 23V23ZM2.05196 7.22056C2.33096 7.22056 2.59853 7.10973 2.79581 6.91245C2.99309 6.71517 3.10393 6.4476 3.10393 6.1686C3.10393 5.8896 2.99309 5.62203 2.79581 5.42475C2.59853 5.22747 2.33096 5.11664 2.05196 5.11664C1.77296 5.11664 1.50539 5.22747 1.30811 5.42475C1.11083 5.62203 1 5.8896 1 6.1686C1 6.4476 1.11083 6.71517 1.30811 6.91245C1.50539 7.10973 1.77296 7.22056 2.05196 7.22056V7.22056ZM2.05196 17.7402C2.33096 17.7402 2.59853 17.6294 2.79581 17.4321C2.99309 17.2348 3.10393 16.9672 3.10393 16.6882C3.10393 16.4092 2.99309 16.1417 2.79581 15.9444C2.59853 15.7471 2.33096 15.6363 2.05196 15.6363C1.77296 15.6363 1.50539 15.7471 1.30811 15.9444C1.11083 16.1417 1 16.4092 1 16.6882C1 16.9672 1.11083 17.2348 1.30811 17.4321C1.50539 17.6294 1.77296 17.7402 2.05196 17.7402V17.7402Z" fill="#B5B5B5" stroke="#B5B5B5" stroke-width="1.5" stroke-linecap="round" stroke-linejoin="round"/>
<path d="M20.9873 6.53994V16.3169C20.9874 16.4296 20.9572 16.5402 20.9001 16.6373C20.8429 16.7345 20.7608 16.8145 20.6622 16.8692L11.8258 21.7776C11.7321 21.8296 11.6267 21.8568 11.5196 21.8568C11.4125 21.8568 11.3072 21.8296 11.2135 21.7776L2.37703 16.8692C2.27848 16.8145 2.19636 16.7345 2.1392 16.6373C2.08203 16.5402 2.05192 16.4296 2.05197 16.3169V6.53994C2.0521 6.42743 2.08231 6.31699 2.13946 6.22008C2.19661 6.12316 2.27863 6.04328 2.37703 5.98871L11.2135 1.0792C11.3072 1.02726 11.4125 1 11.5196 1C11.6267 1 11.7321 1.02726 11.8258 1.0792L20.6622 5.98871C20.7606 6.04328 20.8427 6.12316 20.8998 6.22008C20.957 6.31699 20.9872 6.42743 20.9873 6.53994V6.53994Z" stroke="#B5B5B5" stroke-width="1.5" stroke-linecap="round" stroke-linejoin="round"/>
<path d="M11.5196 20.8961V11.4284M2.60742 6.47786L11.2125 11.258C11.3063 11.3101 11.4118 11.3375 11.5191 11.3375C11.6264 11.3375 11.732 11.3101 11.8258 11.258L20.4613 6.46103L2.60742 6.47786Z" stroke="#B5B5B5" stroke-width="1.5" stroke-linecap="round" stroke-linejoin="round"/>
</svg>
