<svg width="22" height="22" viewBox="0 0 22 22" fill="none" xmlns="http://www.w3.org/2000/svg">
<path d="M7.82833 9.86082C7.73667 9.57665 7.65417 9.30165 7.5625 9.01749C7.47083 8.73332 7.38833 8.46749 7.315 8.20165C7.24167 7.94499 7.1775 7.70665 7.11333 7.48665H7.095C7.0125 7.88082 6.91167 8.27499 6.78333 8.66915C6.64583 9.10915 6.50833 9.56749 6.36167 10.0258C6.2425 10.4933 6.09583 10.9242 5.95833 11.3092H8.28667C8.23167 11.1167 8.15833 10.8875 8.07583 10.6492C7.99333 10.4017 7.91083 10.1358 7.82833 9.86082V9.86082ZM15.6933 9.59499C15.1892 9.56749 14.7125 9.83332 14.4742 10.2917C14.3642 10.5025 14.3 10.7225 14.2725 10.9517H16.2058C16.4441 10.9517 16.6183 10.9517 16.7283 10.9425C16.8016 10.9333 16.8749 10.915 16.9391 10.8692V10.7775C16.9355 10.6179 16.9004 10.4605 16.8358 10.3145C16.7711 10.1685 16.6782 10.0368 16.5624 9.92686C16.4466 9.81694 16.3102 9.73102 16.161 9.67407C16.0119 9.61711 15.8529 9.59023 15.6933 9.59499ZM18.1042 0.299988H3.89583C1.74167 0.299988 0 2.04165 0 4.19582V17.8542C0 20.0083 1.74167 21.75 3.89583 21.75H18.1042C20.2583 21.75 22 20.0083 22 17.8542V4.19582C22 2.04165 20.2583 0.299988 18.1042 0.299988ZM11.6508 15.4351H9.735C9.67083 15.4442 9.60667 15.3975 9.58833 15.3342L8.83667 13.1342H5.42667L4.73 15.2976C4.71167 15.3801 4.63833 15.4351 4.55583 15.4259H2.8325C2.73167 15.4259 2.70417 15.3709 2.73167 15.2609L5.68333 6.79915C5.71083 6.70749 5.73833 6.62499 5.775 6.51499C5.81167 6.32249 5.83 6.12082 5.83 5.91915C5.82083 5.87332 5.8575 5.82749 5.90333 5.81832H8.2775C8.34167 5.81832 8.3875 5.84582 8.39667 5.89165L11.7425 15.2875C11.77 15.3883 11.7434 15.4351 11.6508 15.4351ZM18.8476 11.7767C18.8283 11.9499 18.8192 12.0792 18.81 12.1617C18.8008 12.2258 18.7467 12.2808 18.6817 12.2808C18.6267 12.2808 18.5258 12.29 18.3792 12.3001C18.2334 12.3184 18.0583 12.3267 17.8484 12.3267C17.6376 12.3267 17.4167 12.29 17.1792 12.29H14.2734C14.3092 12.5742 14.4017 12.8583 14.5576 13.1058C14.7198 13.3525 14.9527 13.5446 15.2258 13.6567C15.5925 13.8126 15.9968 13.8951 16.4001 13.8859C16.7209 13.8758 17.0408 13.8492 17.3525 13.7851C17.6325 13.7493 17.9069 13.6785 18.1692 13.5742C18.2151 13.5385 18.2426 13.5559 18.2426 13.6476V15.051C18.2426 15.0867 18.2334 15.1243 18.2233 15.1601C18.2069 15.1856 18.1853 15.2074 18.1601 15.2242C17.8668 15.3526 17.5643 15.4442 17.2434 15.4992C16.8117 15.5817 16.3818 15.6184 15.9418 15.6092C15.2442 15.6092 14.6584 15.4992 14.1818 15.2884C13.7333 15.0931 13.3373 14.7948 13.0258 14.4176C12.7334 14.0601 12.5217 13.6567 12.3933 13.2167C12.2651 12.7819 12.2005 12.3308 12.2018 11.8775C12.2018 11.3834 12.2751 10.8967 12.4309 10.42C12.5776 9.96165 12.8068 9.53999 13.1184 9.16415C13.4209 8.79749 13.7958 8.50415 14.2267 8.29332C14.6584 8.08249 15.1708 8.00915 15.7575 8.00915C16.2463 7.99775 16.7315 8.0948 17.1783 8.29332C17.5542 8.45832 17.8842 8.70582 18.1408 9.02665C18.3792 9.33832 18.5717 9.68665 18.6918 10.0717C18.81 10.4383 18.865 10.8142 18.865 11.19C18.865 11.41 18.8558 11.6025 18.8476 11.7767V11.7767Z" fill="#B5B5B5"/>
</svg>
