<svg width="12" height="11" viewBox="0 0 12 11" fill="none" xmlns="http://www.w3.org/2000/svg">
<path d="M11.6357 3.11963V9.71963C11.6357 9.8655 11.5778 10.0054 11.4747 10.1085C11.3715 10.2117 11.2316 10.2696 11.0857 10.2696H1.18574C1.03987 10.2696 0.899978 10.2117 0.796833 10.1085C0.693688 10.0054 0.635742 9.8655 0.635742 9.71963V2.56963H11.0857C11.2316 2.56963 11.3715 2.62758 11.4747 2.73072C11.5778 2.83387 11.6357 2.97376 11.6357 3.11963ZM6.36344 1.46963H0.635742V0.919629C0.635742 0.77376 0.693688 0.633865 0.796833 0.53072C0.899978 0.427575 1.03987 0.369629 1.18574 0.369629H5.26344L6.36344 1.46963Z" fill="#4CB7F5"/>
</svg>
