<svg width="12" height="11" viewBox="0 0 12 11" fill="none" xmlns="http://www.w3.org/2000/svg">
<path d="M11.6357 3.43945V10.0395C11.6357 10.1853 11.5778 10.3252 11.4747 10.4284C11.3715 10.5315 11.2316 10.5895 11.0857 10.5895H1.18574C1.03987 10.5895 0.899978 10.5315 0.796833 10.4284C0.693688 10.3252 0.635742 10.1853 0.635742 10.0395V2.88945H11.0857C11.2316 2.88945 11.3715 2.9474 11.4747 3.05054C11.5778 3.15369 11.6357 3.29358 11.6357 3.43945ZM6.36344 1.78945H0.635742V1.23945C0.635742 1.09358 0.693688 0.953689 0.796833 0.850544C0.899978 0.747399 1.03987 0.689453 1.18574 0.689453H5.26344L6.36344 1.78945Z" fill="#FFC216"/>
</svg>
