<svg width="11" height="10" viewBox="0 0 11 10" fill="none" xmlns="http://www.w3.org/2000/svg">
<path d="M1.13574 0.832031H10.1357C10.2684 0.832031 10.3955 0.88471 10.4893 0.978478C10.5831 1.07225 10.6357 1.19942 10.6357 1.33203V9.33203C10.6357 9.46464 10.5831 9.59182 10.4893 9.68559C10.3955 9.77935 10.2684 9.83203 10.1357 9.83203H1.13574C1.00313 9.83203 0.875957 9.77935 0.782189 9.68559C0.688421 9.59182 0.635742 9.46464 0.635742 9.33203V1.33203C0.635742 1.19942 0.688421 1.07225 0.782189 0.978478C0.875957 0.88471 1.00313 0.832031 1.13574 0.832031V0.832031ZM3.13574 7.08203V5.08203L4.13574 6.08203L5.13574 5.08203V7.08203H6.13574V3.58203H5.13574L4.13574 4.58203L3.13574 3.58203H2.13574V7.08203H3.13574ZM8.63574 5.58203V3.58203H7.63574V5.58203H6.63574L8.13574 7.08203L9.63574 5.58203H8.63574Z" fill="#B5B5B5"/>
</svg>
