<svg width="12" height="11" viewBox="0 0 12 11" fill="none" xmlns="http://www.w3.org/2000/svg">
<path d="M11.6357 3.63281V10.2328C11.6357 10.3787 11.5778 10.5186 11.4747 10.6217C11.3715 10.7249 11.2316 10.7828 11.0857 10.7828H1.18574C1.03987 10.7828 0.899978 10.7249 0.796833 10.6217C0.693688 10.5186 0.635742 10.3787 0.635742 10.2328V3.08281H11.0857C11.2316 3.08281 11.3715 3.14076 11.4747 3.2439C11.5778 3.34705 11.6357 3.48694 11.6357 3.63281ZM6.36344 1.98281H0.635742V1.43281C0.635742 1.28694 0.693688 1.14705 0.796833 1.0439C0.899978 0.940759 1.03987 0.882813 1.18574 0.882812H5.26344L6.36344 1.98281Z" fill="#349810"/>
</svg>
