<svg width="22" height="22" viewBox="0 0 22 22" fill="none" xmlns="http://www.w3.org/2000/svg">
<path d="M9.6525 9.56083C9.56083 9.27667 9.47833 9.00167 9.38667 8.7175C9.295 8.43333 9.2125 8.1675 9.13917 7.90167C9.06583 7.645 9.00167 7.40667 8.9375 7.18667H8.91917C8.83667 7.58083 8.73583 7.975 8.6075 8.36917C8.47 8.80917 8.3325 9.2675 8.18583 9.72583C8.0575 10.1933 7.92 10.6242 7.7825 11.0092H10.1108C10.0558 10.8158 9.9825 10.5875 9.9 10.3483C9.8175 10.1017 9.735 9.83583 9.6525 9.56083V9.56083ZM18.1042 0H3.89583C1.74167 0 0 1.74167 0 3.89583V17.5542C0 19.7083 1.74167 21.45 3.89583 21.45H18.1042C20.2583 21.45 22 19.7083 22 17.5542V3.89583C22 1.74167 20.2583 0 18.1042 0ZM13.475 15.1525H11.5583C11.495 15.1617 11.4308 15.1158 11.4125 15.0517L10.6608 12.87H7.25083L6.55417 15.0242C6.53583 15.1067 6.4625 15.1617 6.38 15.1534H4.65667C4.55583 15.1534 4.52833 15.0975 4.55583 14.9884L7.5075 6.49C7.535 6.39833 7.5625 6.2975 7.59917 6.1875C7.63583 5.995 7.65417 5.79333 7.65417 5.59167C7.645 5.54583 7.68167 5.5 7.7275 5.49083H10.1017C10.175 5.49083 10.2117 5.51833 10.2208 5.56417L13.5667 15.0058C13.5942 15.1058 13.5667 15.1525 13.475 15.1525V15.1525ZM16.5917 15.015C16.5917 15.1158 16.5559 15.1617 16.4734 15.1617H14.6758C14.5842 15.1617 14.5383 15.1058 14.5383 15.015V7.95667C14.5383 7.865 14.5759 7.82833 14.6584 7.82833H16.4734C16.5559 7.82833 16.5917 7.87417 16.5917 7.95667V15.015V15.015ZM16.4001 6.7375C16.2918 6.84745 16.1613 6.93296 16.0173 6.98829C15.8732 7.04363 15.719 7.06751 15.565 7.05833C15.2625 7.0675 14.9692 6.94833 14.7483 6.7375C14.5382 6.50787 14.4264 6.20519 14.4366 5.89417C14.4274 5.5825 14.5466 5.28917 14.7657 5.07833C14.9875 4.8675 15.2808 4.7575 15.5833 4.7575C15.9418 4.7575 16.2149 4.8675 16.4175 5.07833C16.6192 5.29833 16.7292 5.59167 16.72 5.89417C16.7292 6.20583 16.6192 6.50833 16.4001 6.7375V6.7375Z" fill="#B5B5B5"/>
</svg>
