<svg width="21" height="22" viewBox="0 0 21 22" fill="none" xmlns="http://www.w3.org/2000/svg">
<path fill-rule="evenodd" clip-rule="evenodd" d="M20.1977 5.89308L10.0989 0L0 5.89308V16.1069L1.56299 17.0189L4.7589 15.7263C5.18897 15.5521 5.55727 15.2536 5.81663 14.8688C6.07598 14.4841 6.21459 14.0307 6.21469 13.5667V5.56215H7.76836V13.5667C7.76825 14.3401 7.53721 15.096 7.10485 15.7373C6.67249 16.3787 6.05849 16.8763 5.34153 17.1665L3.2596 18.0086L10.0989 22L20.1977 16.1085V5.89308ZM9.32203 8.66949C9.32203 7.84537 9.64941 7.05501 10.2322 6.47227C10.8149 5.88953 11.6053 5.56215 12.4294 5.56215H14.2425C15.8148 5.56215 17.0904 6.83616 17.0904 8.41003V8.66949H15.5367V8.41003C15.5367 8.24007 15.5032 8.07178 15.4382 7.91476C15.3732 7.75773 15.2778 7.61506 15.1577 7.49488C15.0375 7.37471 14.8948 7.27938 14.7378 7.21433C14.5808 7.14929 14.4125 7.11582 14.2425 7.11582H12.4294C12.0173 7.11582 11.6221 7.27951 11.3308 7.57088C11.0394 7.86225 10.8757 8.25743 10.8757 8.66949C10.8757 9.08155 11.0394 9.47673 11.3308 9.7681C11.6221 10.0595 12.0173 10.2232 12.4294 10.2232H13.9831C14.8072 10.2232 15.5975 10.5505 16.1803 11.1333C16.763 11.716 17.0904 12.5064 17.0904 13.3305C17.0904 14.1546 16.763 14.945 16.1803 15.5277C15.5975 16.1105 14.8072 16.4379 13.9831 16.4379H12.4294C11.6053 16.4379 10.8149 16.1105 10.2322 15.5277C9.64941 14.945 9.32203 14.1546 9.32203 13.3305H10.8757C10.8757 13.7426 11.0394 14.1378 11.3308 14.4291C11.6221 14.7205 12.0173 14.8842 12.4294 14.8842H13.9831C14.3951 14.8842 14.7903 14.7205 15.0817 14.4291C15.373 14.1378 15.5367 13.7426 15.5367 13.3305C15.5367 12.9184 15.373 12.5233 15.0817 12.2319C14.7903 11.9405 14.3951 11.7768 13.9831 11.7768H12.4294C11.6053 11.7768 10.8149 11.4495 10.2322 10.8667C9.64941 10.284 9.32203 9.49361 9.32203 8.66949Z" fill="#B5B5B5"/>
</svg>
