<svg width="14" height="12" viewBox="0 0 14 12" fill="none" xmlns="http://www.w3.org/2000/svg">
<path d="M0.65812 0.698853H12.5043C12.6788 0.698853 12.8462 0.763237 12.9696 0.877843C13.0931 0.992448 13.1624 1.14789 13.1624 1.30996V11.0877C13.1624 11.2498 13.0931 11.4053 12.9696 11.5199C12.8462 11.6345 12.6788 11.6989 12.5043 11.6989H0.65812C0.483575 11.6989 0.31618 11.6345 0.192759 11.5199C0.0693374 11.4053 0 11.2498 0 11.0877V1.30996C0 1.14789 0.0693374 0.992448 0.192759 0.877843C0.31618 0.763237 0.483575 0.698853 0.65812 0.698853ZM6.62068 6.00513L2.40082 2.67763L1.54856 3.60896L6.62924 7.6148L11.6184 3.60591L10.7576 2.6813L6.62134 6.00513H6.62068Z" fill="#B5B5B5"/>
</svg>
