<svg width="13" height="14" viewBox="0 0 13 14" fill="none" xmlns="http://www.w3.org/2000/svg">
<path d="M13 10.6439V13.1977C13.0001 13.3805 12.9308 13.5566 12.8061 13.6904C12.6815 13.8241 12.5107 13.9056 12.3283 13.9184C12.0127 13.9401 11.7549 13.9517 11.5556 13.9517C5.17328 13.9517 0 8.77838 0 2.3961C0 2.19677 0.0108333 1.93894 0.0332222 1.62333C0.0460217 1.44093 0.127531 1.27017 0.261303 1.14551C0.395074 1.02085 0.57115 0.951578 0.754 0.95166H3.30778C3.39736 0.95157 3.48378 0.984781 3.55025 1.04484C3.61672 1.1049 3.65849 1.18753 3.66744 1.27666C3.68406 1.44277 3.69922 1.57494 3.71367 1.67533C3.8572 2.67699 4.15134 3.65121 4.58611 4.56494C4.65472 4.70938 4.60994 4.88199 4.47994 4.97444L2.92139 6.08811C3.87433 8.30854 5.64384 10.0781 7.86428 11.031L8.9765 9.47533C9.02196 9.41177 9.08829 9.36619 9.16391 9.34652C9.23954 9.32685 9.31967 9.33436 9.39033 9.36772C10.304 9.80167 11.2779 10.0951 12.2792 10.238C12.3796 10.2524 12.5118 10.2683 12.6764 10.2842C12.7654 10.2933 12.8479 10.3352 12.9078 10.4016C12.9677 10.4681 13.0008 10.5544 13.0007 10.6439H13Z" fill="#B5B5B5"/>
</svg>
