<svg width="22" height="22" viewBox="0 0 22 22" fill="none" xmlns="http://www.w3.org/2000/svg">
<path d="M9.02917 7.44365C8.69 7.30614 8.32333 7.25114 7.9475 7.26031C7.70917 7.26031 7.49833 7.26031 7.32417 7.26948C7.14083 7.26031 7.0125 7.26948 6.94833 7.27864V10.3588C7.07667 10.3679 7.19583 10.3771 7.30583 10.3771H7.79167C8.14917 10.3771 8.50667 10.3221 8.84583 10.2121C9.13917 10.1296 9.39583 9.95542 9.5975 9.72625C9.79 9.49707 9.88167 9.18539 9.88167 8.78204C9.89083 8.49786 9.8175 8.21368 9.67083 7.96617C9.51799 7.72816 9.2932 7.54511 9.02917 7.44365ZM18.1042 0H3.89583C1.74167 0 0 1.74174 0 3.896V17.554C0 19.7083 1.74167 21.45 3.89583 21.45H18.1042C20.2583 21.45 22 19.7083 22 17.554V3.896C22 1.74174 20.2583 0 18.1042 0ZM11.3291 10.6796C10.9633 11.193 10.45 11.578 9.85417 11.798C9.23083 12.0272 8.54333 12.1097 7.79167 12.1097C7.57167 12.1097 7.425 12.1097 7.33333 12.1005C7.24167 12.0913 7.11333 12.0913 6.93917 12.0913V15.0331C6.94833 15.0972 6.9025 15.1531 6.83833 15.1623H5.06C4.98667 15.1623 4.95 15.1247 4.95 15.0422V5.61024C4.95 5.54607 4.9775 5.5094 5.04167 5.5094C5.1975 5.5094 5.34417 5.5094 5.555 5.50023C5.775 5.49107 6.00417 5.49107 6.25167 5.4819C6.49917 5.47273 6.765 5.47273 7.04917 5.46357C7.33333 5.4544 7.60833 5.4544 7.88333 5.4544C8.635 5.4544 9.25833 5.54607 9.77167 5.73858C10.23 5.89442 10.6517 6.1511 11 6.49028C11.2933 6.78362 11.5225 7.14114 11.6692 7.53532C11.8057 7.92034 11.8791 8.31452 11.8791 8.72704C11.88 9.51541 11.6967 10.1663 11.3291 10.6796ZM17.8292 14.2456C17.5725 14.6123 17.2141 14.8956 16.8025 15.0624C16.3533 15.254 15.8033 15.3539 15.1424 15.3539C14.7217 15.3539 14.3083 15.3182 13.8967 15.2357C13.5758 15.1797 13.255 15.0798 12.9617 14.9423C12.8975 14.9066 12.8508 14.8424 12.8599 14.769V13.174C12.8599 13.1474 12.87 13.1098 12.8975 13.0915C12.9241 13.0731 12.9525 13.0823 12.98 13.1006C13.3375 13.3115 13.7133 13.4591 14.1167 13.5498C14.4641 13.6415 14.8308 13.6873 15.1983 13.6873C15.5467 13.6873 15.7942 13.6406 15.9592 13.5581C16.1058 13.4939 16.2067 13.3381 16.2067 13.1731C16.2067 13.0438 16.1333 12.9256 15.9867 12.8064C15.84 12.6881 15.5384 12.5506 15.0893 12.3746C14.6218 12.2096 14.1918 11.9896 13.7876 11.7155C13.5007 11.5101 13.2626 11.244 13.09 10.9363C12.9443 10.6463 12.8722 10.3248 12.8801 10.0003C12.8801 9.60616 12.9901 9.23031 13.1927 8.89113C13.4218 8.52445 13.7601 8.2311 14.1543 8.04776C14.5842 7.82867 15.125 7.72783 15.7758 7.72783C16.1517 7.72783 16.5367 7.75533 16.9125 7.81033C17.1875 7.847 17.4533 7.92034 17.7008 8.02118C17.7366 8.03034 17.7742 8.06701 17.7925 8.10368C17.8017 8.14035 17.8108 8.17702 17.8108 8.21368V9.70791C17.8108 9.74458 17.7925 9.78125 17.765 9.79958C17.6825 9.81792 17.6367 9.81792 17.6 9.79958C17.325 9.65291 17.0317 9.55207 16.72 9.4879C16.3808 9.41457 16.0417 9.36873 15.6933 9.36873C15.51 9.35957 15.3175 9.38707 15.1424 9.4329C15.0242 9.4604 14.9224 9.52457 14.8582 9.61624C14.8124 9.68958 14.7849 9.78125 14.7849 9.86375C14.7849 9.94626 14.8216 10.0288 14.8775 10.1021C14.96 10.2029 15.0691 10.2854 15.1892 10.3496C15.3991 10.4596 15.62 10.5605 15.8391 10.6521C16.335 10.8171 16.8117 11.0463 17.2517 11.3213C17.5542 11.5129 17.8017 11.7705 17.9749 12.0822C18.1216 12.3737 18.1949 12.6964 18.1858 13.0255C18.1958 13.4572 18.0675 13.8872 17.8292 14.2456Z" fill="#B5B5B5"/>
</svg>
